<svg width="30" height="31" viewBox="0 0 30 31" fill="none" xmlns="http://www.w3.org/2000/svg">
<path fill-rule="evenodd" clip-rule="evenodd" d="M2.87451 4.04901H7.25282H8.27757L8.47855 5.01367L9.05021 7.75769H26.0538H27.5293L27.2868 9.15497L25.999 16.5723L25.8249 17.575H24.766H11.0955L11.6257 20.12H24.766V22.52H10.6009H9.57617L9.3752 21.5553L6.79972 9.19303L8.02546 8.9577L6.79972 9.19303L6.22806 6.44901H2.87451V4.04901ZM9.55021 10.1577L10.5955 15.175H23.7072L24.5782 10.1577H9.55021ZM13.9697 25.5067C13.9697 26.6111 13.0394 27.5042 11.8889 27.5042C10.7383 27.5042 9.80811 26.6111 9.80811 25.5067C9.80811 24.4022 10.7383 23.5325 11.8889 23.5325C13.0394 23.5325 13.9697 24.4022 13.9697 25.5067ZM22.1917 27.5042C23.3422 27.5042 24.2724 26.6111 24.2724 25.5067C24.2724 24.4022 23.3422 23.5325 22.1917 23.5325C21.041 23.5325 20.1108 24.4022 20.1108 25.5067C20.1108 26.6111 21.041 27.5042 22.1917 27.5042Z" fill="#888888"/>
</svg>
