<svg width="30" height="31" viewBox="0 0 30 31" fill="none" xmlns="http://www.w3.org/2000/svg">
<path fill-rule="evenodd" clip-rule="evenodd" d="M3.78502 7.07268C6.17872 4.77472 10.0466 4.77472 12.4403 7.07268L15.0001 9.53016L17.56 7.07268C19.9537 4.77472 23.8216 4.77472 26.2154 7.07268C28.609 9.37063 28.609 13.0838 26.2154 15.3818L15.0001 26.1483L3.78502 15.3818C1.39132 13.0838 1.39132 9.37063 3.78502 7.07268ZM10.6725 8.76973C9.25515 7.40904 6.97018 7.40904 5.55278 8.76973C4.1354 10.1304 4.1354 12.324 5.55278 13.6847L15.0001 22.7542L24.4476 13.6847C25.865 12.324 25.865 10.1304 24.4476 8.76973C23.0302 7.40904 20.7452 7.40904 19.3279 8.76973L15.0001 12.9243L10.6725 8.76973Z" fill="#888888"/>
</svg>
