<svg width="50" height="50" viewBox="0 0 50 50" fill="none" xmlns="http://www.w3.org/2000/svg">
<path fill-rule="evenodd" clip-rule="evenodd" d="M6.30841 10.9545C10.2979 7.12455 16.7444 7.12455 20.7339 10.9545L25.0002 15.0503L29.2667 10.9545C33.2563 7.12455 39.7027 7.12455 43.6923 10.9545C47.6817 14.7844 47.6817 20.973 43.6923 24.803L25.0002 42.7472L6.30841 24.803C2.31891 20.973 2.31891 14.7844 6.30841 10.9545ZM17.7876 13.7829C15.4253 11.5151 11.617 11.5151 9.25468 13.7829C6.89237 16.0507 6.89237 19.7067 9.25468 21.9746L25.0002 37.0904L40.7461 21.9746C43.1084 19.7067 43.1084 16.0507 40.7461 13.7829C38.3838 11.5151 34.5755 11.5151 32.2132 13.7829L25.0002 20.7072L17.7876 13.7829Z" fill="#FF5722"/>
</svg>
