<svg width="51" height="50" viewBox="0 0 51 50" fill="none" xmlns="http://www.w3.org/2000/svg">
<path fill-rule="evenodd" clip-rule="evenodd" d="M7.23828 10.9545C11.2278 7.12455 17.6743 7.12455 21.6638 10.9545L25.9301 15.0503L30.1966 10.9545C34.1862 7.12455 40.6326 7.12455 44.6222 10.9545C48.6116 14.7844 48.6116 20.973 44.6222 24.803L25.9301 42.7472L7.23828 24.803C3.24878 20.973 3.24878 14.7844 7.23828 10.9545ZM18.7175 13.7829C16.3552 11.5151 12.5469 11.5151 10.1846 13.7829C7.82224 16.0507 7.82224 19.7067 10.1846 21.9746L25.9301 37.0904L41.6759 21.9746C44.0382 19.7067 44.0382 16.0507 41.6759 13.7829C39.3137 11.5151 35.5053 11.5151 33.143 13.7829L25.9301 20.7072L18.7175 13.7829Z" fill="#888888"/>
</svg>
