<svg width="30" height="30" viewBox="0 0 30 30" fill="none" xmlns="http://www.w3.org/2000/svg">
<path fill-rule="evenodd" clip-rule="evenodd" d="M3.78502 6.57271C6.17872 4.27476 10.0466 4.27476 12.4403 6.57271L15.0001 9.03019L17.56 6.57271C19.9537 4.27476 23.8216 4.27476 26.2154 6.57271C28.609 8.87066 28.609 12.5838 26.2154 14.8818L15.0001 25.6483L3.78502 14.8818C1.39132 12.5838 1.39132 8.87066 3.78502 6.57271ZM10.6725 8.26976C9.25515 6.90907 6.97018 6.90907 5.55278 8.26976C4.1354 9.63045 4.1354 11.824 5.55278 13.1848L15.0001 22.2543L24.4476 13.1848C25.865 11.824 25.865 9.63045 24.4476 8.26976C23.0302 6.90907 20.7452 6.90907 19.3279 8.26976L15.0001 12.4243L10.6725 8.26976Z" fill="#F36223"/>
<rect x="2" y="10.763" width="8.50461" height="18.0802" transform="rotate(-42.6591 2 10.763)" fill="#F36223"/>
<rect x="22.4633" y="5" width="7.93424" height="17.0505" transform="rotate(46.9672 22.4633 5)" fill="#F36223"/>
</svg>
