<svg width="26" height="31" viewBox="0 0 26 31" fill="none" xmlns="http://www.w3.org/2000/svg">
<path d="M2.95284 8.52325L1 30.1512H24.7595L22.4812 8.52325H2.95284Z" fill="#9CCC65" stroke="#9CCC65"/>
<path d="M18.9011 17.9419H6.53308V30.1512H18.9011V17.9419Z" fill="#B71C1C"/>
<path d="M6.53308 30.5V17.9419H18.9011V30.5M6.53308 30.1512H18.9011" stroke="#B71C1C"/>
<path d="M11.7406 19.3372H7.83496V30.1512H11.7406V19.3372Z" fill="#FF5722" stroke="#FF5722"/>
<path d="M10.4388 24.2209H9.78784V24.9186H10.4388V24.2209Z" stroke="#B71C1C"/>
<path d="M17.5992 19.3372H13.6935V30.1512H17.5992V19.3372Z" fill="#FF5722" stroke="#FF5722"/>
<path d="M15.6463 24.2209H14.9954V24.9186H15.6463V24.2209Z" stroke="#B71C1C"/>
<ellipse cx="17.9246" cy="12.0116" rx="1.30189" ry="1.39535" fill="#2A6A27"/>
<ellipse cx="7.50941" cy="12.0116" rx="1.30189" ry="1.39535" fill="#2A6A27"/>
<path d="M7.5094 12.0116V8.62111C7.5094 6.77727 8.26844 5.01474 9.6081 3.74783L9.70762 3.65372C11.5457 1.91541 14.4477 2.00619 16.1736 3.85598V3.85598C17.2988 5.0619 17.9245 6.6498 17.9245 8.29911V12.0116" stroke="#388E3C" stroke-width="2" stroke-linecap="round"/>
</svg>
