<svg width="20" height="20" viewBox="0 0 20 20" fill="none" xmlns="http://www.w3.org/2000/svg">
<path d="M6.68646 7.05472L2.27749 7.3949C1.40827 7.46196 1.03513 8.53164 1.67403 9.12479L4.92932 12.147C5.19262 12.3914 5.30455 12.7583 5.22253 13.1081L4.16996 17.5972C3.96488 18.4718 4.92756 19.1523 5.68364 18.6671L9.40986 16.2758C9.73659 16.0662 10.1552 16.0646 10.4835 16.2717L14.2877 18.6716C15.05 19.1525 16.0094 18.4587 15.7916 17.5841L14.6799 13.1219C14.591 12.7649 14.7052 12.388 14.9773 12.1405L18.2897 9.12668C18.9377 8.53713 18.5682 7.45848 17.6948 7.39007L13.4031 7.05392C13.0255 7.02434 12.6969 6.78388 12.5545 6.43284L10.9093 2.37656C10.5668 1.53216 9.36562 1.54843 9.04611 2.40179L7.54605 6.40831C7.40965 6.77264 7.07433 7.02479 6.68646 7.05472Z" fill="#FFD017"/>
</svg>
